# xmcd
#
# Track frame offsets:
#	150
#	16967
#	27345
#	52703
#	72148
#	98951
#	121156
#	133638
#	141522
#	162280
#	182648
#	211024
#	234018
#	263843
#	288543
#	300366
#	316692
#	334527
#
# Disc length: 4722 seconds
#
# Revision: 1
# Processed by: cddbd v1.5.2PL0 Copyright (c) Steve Scherf et al.
# Submitted via: audiograbber 1.83.01
#
DISCID=e9127012
DTITLE=Various Artist - Trance The Ultimate Collection Vol. 2 2008
DYEAR=2008
DGENRE=Trance
TTITLE0=Armin Van Buuren and DJ Shah feat..Chris Jones - Going Wrong (DJ Shah's
TTITLE0=Magic Island Mix)
TTITLE1=Dash Berlin - Till The Sky Falls Down (Vocal Mix)
TTITLE2=Orjan Nilsen - La Guitarra
TTITLE3=Simon and Shaker vs. Groove Garcia - Soultech! (Simon and Shaker Remix)
TTITLE4=Sia - The Girl You Lost To Cocaine (Sander Van Doorn Remix)
TTITLE5=Tiësto - Elements Of Life
TTITLE6=Marcel Woods feat. MC Da Silva - On Fire (Rank 1's No This Aint Trance 
TTITLE6=Like 99 Remix)
TTITLE7=Marco V - Dudak
TTITLE8=Ernesto vs. Bastian - Thrill
TTITLE9=Rank 1 vs. Jochen Miller - And Then...
TTITLE10=M.I.K.E. vs. Andrew Bennett - A Better World (Club Mix)
TTITLE11=Erik De Koning - Dream Flight (Mike Nichol Remix)
TTITLE12=Sunlounger feat. Zara - Crawling (DJ Shah Rework)
TTITLE13=Bolier and Van Riel - Malibeer
TTITLE14=Ruben De Ronde vs. Jinx - Sunny Day In Paris
TTITLE15=Klubbheads - Dubbfunking
TTITLE16=Robert Nickson - Narc (Simon and Shaker Remix)
TTITLE17=Mike Foyle - Pandora
EXTD=
EXTT0=
EXTT1=
EXTT2=
EXTT3=
EXTT4=
EXTT5=
EXTT6=
EXTT7=
EXTT8=
EXTT9=
EXTT10=
EXTT11=
EXTT12=
EXTT13=
EXTT14=
EXTT15=
EXTT16=
EXTT17=
PLAYORDER=
